<svg xmlns="http://www.w3.org/2000/svg" fill="none" viewBox="0 0 211 35" class="hidden h-6 w-auto md:h-10 dark:block"><g clip-path="url(#i1978433488__a)"><path fill="#E6E9FA" d="M47.714 15.487q-.32.798-.32 1.932c0 .756.106 1.418.316 1.956q.318.806.896 1.228.578.423 1.354.422.571 0 1.028-.234a2 2 0 0 0 .758-.684q.3-.45.396-1.084h3.144q-.079 1.377-.748 2.42a4.55 4.55 0 0 1-1.842 1.63q-1.173.587-2.778.586-1.846 0-3.172-.786a5.23 5.23 0 0 1-2.034-2.186q-.708-1.401-.708-3.222c0-1.214.238-2.312.716-3.242a5.3 5.3 0 0 1 2.038-2.182q1.323-.786 3.144-.786 1.572 0 2.754.572 1.181.571 1.87 1.604.688 1.032.758 2.424H52.14q-.133-.9-.7-1.452t-1.482-.552q-.774 0-1.35.418-.576.419-.896 1.216zm20.056-.808q.432 1.143.432 2.68v.914h-8.184v.008q0 .892.334 1.54.333.65.942 1.002.61.352 1.446.352.557 0 1.016-.156.465-.156.792-.468t.5-.768l3.082.204a4.2 4.2 0 0 1-.956 1.936q-.725.827-1.864 1.284-1.136.457-2.624.456c-1.236 0-2.298-.248-3.186-.752a5.1 5.1 0 0 1-2.056-2.146q-.72-1.387-.72-3.288c0-1.266.24-2.322.72-3.254a5.3 5.3 0 0 1 2.03-2.182q1.311-.784 3.078-.784c.792 0 1.534.126 2.218.378a5.05 5.05 0 0 1 1.8 1.14q.77.757 1.2 1.904m-2.706 1.53q-.001-.72-.312-1.276a2.27 2.27 0 0 0-.866-.872q-.549-.318-1.278-.318c-.486 0-.954.118-1.34.348a2.5 2.5 0 0 0-.912.93c-.202.36-.308.756-.328 1.188h5.038zm11.334-4.968q-1.009 0-1.784.574-.774.576-1.102 1.694h-.126v-2.096h-3.23V23.43h3.332v-6.798q0-.734.332-1.298.332-.563.908-.88t1.31-.316q.344 0 .758.054.413.054.65.126v-2.956a4 4 0 0 0-.508-.086 5 5 0 0 0-.54-.032zm8.87 9.626a2.7 2.7 0 0 1-.47.044q-.337 0-.59-.102a.77.77 0 0 1-.396-.356q-.14-.255-.14-.716v-5.82h2.26v-2.504h-2.26V8.535H80.34v2.878h-1.642v2.504h1.642v6.258q-.007 1.182.492 1.956.501.775 1.404 1.142.904.367 2.108.32.648-.023 1.102-.13.454-.106.704-.184l-.524-2.48-.36.066zm4.286-14.374q-.734 0-1.268.496-.531.497-.532 1.192 0 .696.528 1.188a1.8 1.8 0 0 0 1.272.492q.744 0 1.272-.496a1.58 1.58 0 0 0 .528-1.194q0-.697-.528-1.188a1.8 1.8 0 0 0-1.272-.492zM87.88 23.43h3.332V11.413H87.88zM98.008 9.657q.288-.34 1.024-.34.297 0 .582.054.285.055.482.118l.594-2.504a10 10 0 0 0-.95-.212 8 8 0 0 0-1.404-.118q-1.135 0-2.026.43a3.25 3.25 0 0 0-1.404 1.29q-.513.861-.512 2.166v.868h-1.698v2.504h1.698v9.512h3.324v-9.512h2.394V11.41h-2.394v-.806q0-.61.29-.95zm5.592-3.164q-.734 0-1.268.496-.532.497-.532 1.192 0 .696.528 1.188a1.8 1.8 0 0 0 1.272.492q.744 0 1.272-.496a1.58 1.58 0 0 0 .528-1.194q0-.697-.528-1.188a1.8 1.8 0 0 0-1.272-.492zm-1.674 16.936h3.332V11.413h-3.332zm9.89-9.156a2.24 2.24 0 0 1 1.35-.418q.915 0 1.482.552t.7 1.452h3.144q-.07-1.392-.758-2.424-.687-1.031-1.87-1.604-1.182-.571-2.754-.572-1.824 0-3.144.786a5.3 5.3 0 0 0-2.038 2.182q-.716 1.398-.716 3.242c0 1.23.236 2.29.708 3.222a5.23 5.23 0 0 0 2.034 2.186q1.327.786 3.172.786 1.602 0 2.778-.586a4.55 4.55 0 0 0 1.842-1.63q.668-1.045.748-2.42h-3.144a2.6 2.6 0 0 1-.396 1.084 2 2 0 0 1-.758.684 2.2 2.2 0 0 1-1.028.234q-.775 0-1.354-.422-.578-.423-.896-1.228-.317-.805-.316-1.956c0-.766.106-1.4.32-1.932q.32-.798.896-1.216zm18.376-.79q.416.771.418 1.842v8.102h-3.162v-1.664h-.094a3.4 3.4 0 0 1-.774.99 3.6 3.6 0 0 1-1.168.664q-.68.239-1.572.24-1.148 0-2.048-.402-.901-.405-1.418-1.198c-.348-.532-.522-1.19-.522-1.984q0-1.003.37-1.682c.242-.454.58-.82 1.002-1.096q.63-.415 1.444-.628a11 11 0 0 1 1.7-.296q1.048-.109 1.688-.206.644-.097.93-.294c.194-.13.29-.32.29-.58v-.046q-.001-.742-.464-1.152-.467-.404-1.32-.404-.9 0-1.432.396c-.354.26-.588.592-.706.986l-3.08-.248q.234-1.095.924-1.896.686-.803 1.78-1.236c.726-.292 1.572-.436 2.528-.436q1.002 0 1.922.234a5.1 5.1 0 0 1 1.636.728q.716.493 1.128 1.262zm-2.892 4.378c-.104.066-.25.13-.426.184a8 8 0 0 1-.608.15q-.334.064-.672.116-.336.05-.608.09a4 4 0 0 0-1.026.272q-.436.189-.68.504-.244.316-.244.786.002.681.498 1.038c.33.238.754.354 1.264.354s.924-.096 1.298-.294c.376-.194.668-.458.886-.792q.32-.498.32-1.134V17.86zm11.402 3.006a2.7 2.7 0 0 1-.47.044q-.337 0-.59-.102a.77.77 0 0 1-.396-.356q-.14-.255-.14-.716v-5.82h2.26v-2.504h-2.26V8.535h-3.332v2.878h-1.642v2.504h1.642v6.258q-.007 1.182.492 1.956.501.775 1.404 1.142.904.367 2.108.32.649-.023 1.102-.13.454-.106.704-.184l-.524-2.48-.36.066zm13.048-6.186q.43 1.143.43 2.68v.914h-8.182v.008q0 .892.334 1.54.328.65.942 1.002.609.352 1.446.352c.372 0 .708-.052 1.016-.156.31-.104.57-.26.79-.468q.332-.314.502-.768l3.084.204a4.2 4.2 0 0 1-.96 1.936c-.484.552-1.1.978-1.86 1.284-.758.306-1.636.456-2.624.456q-1.853.002-3.19-.752a5.1 5.1 0 0 1-2.052-2.146q-.72-1.387-.72-3.288c0-1.266.24-2.322.72-3.254a5.3 5.3 0 0 1 2.03-2.182q1.31-.784 3.078-.784 1.188 0 2.216.378a5.1 5.1 0 0 1 1.8 1.14q.768.757 1.2 1.904m-2.706 1.53q0-.72-.314-1.276a2.24 2.24 0 0 0-.864-.872q-.55-.318-1.278-.318-.762.002-1.34.348-.585.35-.912.93a2.64 2.64 0 0 0-.33 1.188h5.04zm11.888.242-2.174-.438q-.837-.179-1.182-.478a.92.92 0 0 1-.344-.728q0-.54.532-.864.531-.324 1.306-.324.578 0 .998.192.417.193.676.508.258.318.336.708l3.05-.188q-.219-1.66-1.53-2.62-1.311-.962-3.586-.962-1.542 0-2.686.454-1.146.453-1.776 1.29-.63.838-.63 1.994 0 1.346.856 2.214t2.616 1.22l2.08.414q.783.156 1.158.45.375.293.384.748-.008.54-.544.88-.537.34-1.412.34c-.584 0-1.082-.126-1.462-.38q-.57-.379-.72-1.106l-3.278.172q.242 1.722 1.654 2.718 1.413.997 3.798.998 1.565 0 2.766-.496 1.2-.498 1.894-1.388.692-.892.692-2.074 0-1.299-.86-2.096t-2.612-1.158"></path><path fill="url(#i1978433488__b)" d="M33.374 18.88a2.03 2.03 0 0 0 0-2.933l-1.496-1.428a2.02 2.02 0 0 1-.546-2.036l.582-1.984a2.03 2.03 0 0 0-1.468-2.542l-2.008-.488a2.03 2.03 0 0 1-1.492-1.49l-.488-2.01a2.027 2.027 0 0 0-2.54-1.466l-1.986.58a2.02 2.02 0 0 1-2.036-.546l-1.428-1.494a2.026 2.026 0 0 0-2.934 0l-1.428 1.494a2.02 2.02 0 0 1-2.036.546l-1.984-.58a2.03 2.03 0 0 0-2.542 1.466l-.488 2.01a2.02 2.02 0 0 1-1.49 1.49l-2.01.488a2.03 2.03 0 0 0-1.468 2.542l.582 1.984a2.02 2.02 0 0 1-.546 2.036L.628 15.947a2.03 2.03 0 0 0 0 2.934l1.496 1.428c.55.524.76 1.31.546 2.036l-.582 1.986a2.03 2.03 0 0 0 1.468 2.54l2.01.488c.736.18 1.312.754 1.49 1.492l.488 2.008a2.03 2.03 0 0 0 2.542 1.468l1.984-.582c.728-.214 1.514 0 2.036.546l1.428 1.496a2.03 2.03 0 0 0 2.934 0l1.428-1.496a2.03 2.03 0 0 1 2.036-.546l1.986.582a2.03 2.03 0 0 0 2.54-1.468l.488-2.008a2.03 2.03 0 0 1 1.492-1.492l2.008-.488a2.03 2.03 0 0 0 1.468-2.54l-.582-1.986a2.02 2.02 0 0 1 .546-2.036zm-17.77 2.389L13.62 23.25l-5.8-5.8 5.8-5.8 1.984 1.984-3.818 3.816zm4.816 1.982-1.984-1.982 3.818-3.818-3.818-3.816 1.984-1.984 5.8 5.8z"></path><path fill="#E6E9FA" d="M168.236 19.89q-.774 0-1.326.549a1.79 1.79 0 0 0-.552 1.314c0 .51.184.958.552 1.326q.552.552 1.326.552.509 0 .93-.254.423-.255.684-.68t.262-.942q0-.765-.564-1.314-.564-.547-1.314-.548zM180.562 7.405v6.024h-.102a4.4 4.4 0 0 0-.636-.99 3.4 3.4 0 0 0-1.096-.846q-.676-.337-1.686-.338-1.323 0-2.43.684-1.106.684-1.77 2.058-.666 1.371-.666 3.438c0 1.378.216 2.468.646 3.39q.647 1.38 1.752 2.088 1.106.71 2.478.708.967.001 1.644-.322a3.3 3.3 0 0 0 1.104-.806q.426-.492.66-.99h.144v1.922h3.284V7.405zm-.232 11.884q-.299.796-.858 1.238-.56.441-1.364.442c-.536 0-1.008-.15-1.384-.448q-.558-.448-.852-1.254-.292-.8-.294-1.848c0-.7.1-1.304.292-1.83q.288-.79.852-1.236c.374-.3.836-.446 1.386-.446s.992.144 1.368.428q.562.433.86 1.222.298.792.298 1.862 0 1.072-.304 1.87M197.388 18.27v-.913q0-1.537-.432-2.68-.428-1.147-1.2-1.904a5 5 0 0 0-1.8-1.14 6.4 6.4 0 0 0-2.216-.378q-1.77 0-3.078.782a5.3 5.3 0 0 0-2.032 2.182q-.72 1.399-.72 3.254c0 1.236.24 2.364.72 3.288a5.1 5.1 0 0 0 2.056 2.146c.888.504 1.95.752 3.186.752q1.488.002 2.624-.456 1.139-.458 1.864-1.284.722-.823.956-1.934l-3.08-.204a2.04 2.04 0 0 1-.502.768 2.2 2.2 0 0 1-.788.468q-.464.156-1.018.156-.837 0-1.448-.352a2.4 2.4 0 0 1-.942-1.002q-.334-.647-.334-1.538v-.01zm-7.848-3.251q.332-.579.912-.93.585-.347 1.342-.348c.504 0 .912.106 1.28.318q.549.315.864.874.312.553.312 1.274h-5.036q.026-.648.326-1.188M206.678 11.411l-2.488 8.596h-.124l-2.496-8.596h-3.52l4.2 12.016h3.756l4.2-12.016z"></path></g><defs><linearGradient id="i1978433488__b" x1=".001" x2="34.001" y1="34.414" y2="34.414" gradientUnits="userSpaceOnUse"><stop stop-color="#4255FF"></stop><stop offset="1" stop-color="#00A3FF"></stop></linearGradient><clipPath id="i1978433488__a"><path fill="#fff" d="M0 .415h210.206v34H0z"></path></clipPath></defs></svg>