<?xml version="1.0" encoding="utf-8"?>
<!-- Generator: Adobe Illustrator 28.0.0, SVG Export Plug-In . SVG Version: 6.00 Build 0)  -->
<svg version="1.1" id="Layer_1" xmlns="http://www.w3.org/2000/svg" xmlns:xlink="http://www.w3.org/1999/xlink" x="0px" y="0px"
	 viewBox="0 0 165 70" style="enable-background:new 0 0 165 70;" xml:space="preserve">
<style type="text/css">
	.st0{fill:#00594C;}
	.st1{fill:#ABBD26;}
</style>
<g>
	<g>
		<g>
			<path class="st0" d="M97.2,53.1h-3.9v3.5h-3.5v-8.8h3.5v3.1h3.9v-3.1h3.5v8.8h-3.5L97.2,53.1L97.2,53.1z"/>
			<path class="st0" d="M106.8,52.3c0-1.8,0.9-2.5,2.3-2.5c1.4,0,2.3,0.7,2.3,2.5c0,1.8-0.9,2.5-2.3,2.5
				C107.7,54.7,106.8,54.1,106.8,52.3z M103.1,52.3c0,4.6,3.9,4.7,6,4.7s6-0.1,6-4.7s-3.9-4.7-6-4.7C107,47.5,103.1,47.7,103.1,52.3
				z"/>
			<path class="st0" d="M117.6,47.9h4.9L124,53h0l1.4-5.1h4.9v8.8h-3.2v-6.3l0,0l-1.9,6.3h-2.6l-1.8-6.3h0v6.3h-3.2L117.6,47.9
				L117.6,47.9z"/>
			<path class="st0" d="M133.6,47.9h9.4V50h-5.9v1.2h5.5v2.1h-5.5v1.2h5.9v2.2h-9.4V47.9z"/>
			<path class="st0" d="M147.5,52.9c-1.7-0.2-2.4-1.2-2.4-2.4c0-2.3,2.3-2.9,5.1-2.9c3.9,0,5.5,1.1,5.7,2.9h-4
				c0-0.3-0.2-0.6-0.5-0.7c-0.3-0.1-0.7-0.2-1.1-0.2c-1.1,0-1.4,0.2-1.4,0.6c0,0.2,0.1,0.4,0.4,0.4l4.2,0.6c1.7,0.2,2.8,1.1,2.8,2.5
				c0,2.2-1.8,3.2-5.7,3.2c-2.7,0-5.6-0.4-5.6-3h4.2c0,0.3,0.1,0.5,0.4,0.6c0.2,0.1,0.6,0.2,1.2,0.2c1.1,0,1.4-0.3,1.4-0.7
				c0-0.2-0.1-0.5-0.6-0.6L147.5,52.9z"/>
		</g>
		<g>
			<g>
				<g>
					<path class="st1" d="M0.1,42.4v13.9c0.4-0.7,1-1.5,1.7-2.2c3.2-2.8,10-1.4,12-6.4v-5.3H0.1z"/>
					<path class="st1" d="M14.2,47.7c-1.4,6.7-7.1,5.4-9,8.3c-1.5,2.3,0.2,5,1.5,6.5h12.3V47.7H14.2L14.2,47.7z"/>
				</g>
			</g>
			<g>
				<path class="st0" d="M26.5,10.6h4.9C38.6,10.6,43,14.4,43,24c0,11.9-5.3,15.4-12.3,15.4h-4.3L26.5,10.6L26.5,10.6z M18.9,7.6
					v34.7H33c10.4,0,18.4-6.8,18.4-18.4c0-8.3-4.5-16-15.3-16.4C36.2,7.6,18.9,7.6,18.9,7.6z"/>
				<path class="st0" d="M59.9,13.6c0-1.9,0-5.8,0-5.8h-6.4v34.6h6.4V23.6c0-3.7,0.1-5.9,2.5-8.6c1-1.1,2.4-1.6,4.2-1.6c2,0,3,1,3,1
					l0.6,0.5l0.1-0.8l1-6.2L71,7.8c-0.7-0.3-1.4-0.4-2.4-0.4C65.7,7.4,62.6,9.5,59.9,13.6z"/>
				<path class="st0" d="M70.2,25c0,10.8,6.7,17.7,17.1,17.7c4.1,0,8.6-1.5,12.4-4.2l0.2-0.1l0.1-5.2L99,34.1
					c-3.2,3.1-6.7,4.7-10,4.7c-3.5,0-6.4-1.2-8.5-3.4c-2.1-2.3-3.2-5.5-3.2-9.1c0-0.3,0-0.7,0-1c0.9,0,9.4,0,9.4,0
					c4.7,0,9.5,0,14.2,0.2h0.5l0-0.5c0.3-5.6-1.1-10.2-4.1-13.3C94.7,8.7,91,7.2,86.7,7.2C76.7,7.2,70.2,14.2,70.2,25z M86.7,10.5
					c5.2,0,7.9,3.6,8.2,11.1c-1,0-16.5,0-17.5,0C77.9,16.1,80.7,10.5,86.7,10.5z"/>
				<path class="st0" d="M103.1,25c0,10.8,6.7,17.7,17.1,17.7c4.1,0,8.6-1.5,12.4-4.2l0.2-0.1l0.1-5.2l-0.9,0.9
					c-3.2,3.1-6.7,4.7-10,4.7c-3.5,0-6.4-1.2-8.5-3.4c-2.1-2.3-3.2-5.5-3.2-9.1c0-0.3,0-0.7,0-1c0.9,0,9.4,0,9.4,0
					c4.7,0,9.5,0,14.2,0.2h0.5l0-0.5c0.3-5.6-1.1-10.2-4.1-13.3c-2.7-2.8-6.5-4.4-10.7-4.4C109.6,7.2,103.1,14.2,103.1,25z
					 M119.7,10.5c5.2,0,7.9,3.6,8.3,11.1c-1,0-16.5,0-17.5,0C110.9,16.1,113.6,10.5,119.7,10.5z"/>
				<path class="st0" d="M138.8,10.5c-2,2-3,4.7-3,7.8c0,6.9,4.9,8.3,9.3,9.4c3.8,1.1,7.2,2,7.2,6.2c0,3.6-3.5,5.9-6.6,5.9
					c-3.5,0-6.2-2.5-7.6-4.9l-0.7-1.3l-1.9,6.8l0.2,0.1c2.4,1.4,5.8,2.4,8.9,2.4c6.3,0,13.2-3.5,13.2-11.3c0-6.2-4.8-7.8-9.2-9.2
					c-3.9-1.3-7.3-2.4-7.3-6.4c0-1.6,0.5-2.9,1.6-3.9c1.1-1.1,2.7-1.7,4.4-1.6c3.9,0.1,6.4,5.2,6.5,5.2l0.4,0.9l0.2-0.9
					c0.4-1.7,1.6-5.7,1.6-5.7l0.1-0.3l-0.2-0.1c-0.2-0.1-4.3-2-8.2-2.1C144,7.2,140.9,8.4,138.8,10.5z"/>
			</g>
		</g>
	</g>
	<g>
		<g>
			<path class="st0" d="M158.8,48.9h1c0.6,0,1,0.2,1,0.8c0,0.5-0.3,0.7-0.7,0.7l0.7,1.1h-0.5l-0.6-1.1h-0.3v1.1h-0.5L158.8,48.9
				L158.8,48.9z M159.3,50h0.4c0.3,0,0.5,0,0.5-0.3c0-0.3-0.3-0.3-0.5-0.3h-0.4L159.3,50C159.3,50,159.3,50,159.3,50z"/>
		</g>
		<path class="st0" d="M159.7,47.8c-1.3,0-2.4,1.1-2.4,2.4c0,1.3,1.1,2.4,2.4,2.4c1.3,0,2.4-1.1,2.4-2.4
			C162.1,48.8,161,47.8,159.7,47.8z M159.7,52c-1,0-1.8-0.8-1.8-1.8s0.8-1.8,1.8-1.8c1,0,1.8,0.8,1.8,1.8
			C161.6,51.2,160.7,52,159.7,52z"/>
	</g>
</g>
</svg>
